{
  "source": "C:\\Users\\Peter\\Desktop\\stuff\\MIUN\\quantitative_research\\video_compression\\videos\\BVI-HD\\BVI-HD_CDVL_videos\\ORIG\\Rowing_1920x1080_30fps.mp4",
  "output": "C:\\Users\\Peter\\Desktop\\stuff\\MIUN\\quantitative_research\\video_compression\\compressed_videos\\BVI-HD\\h264\\2.5\\Rowing_1920x1080_30fps_h264.mp4",
  "codec": "h264",
  "ok": "Input #0, mov,mp4,m4a,3gp,3g2,mj2, from 'C:\\Users\\Peter\\Desktop\\stuff\\MIUN\\quantitative_research\\video_compression\\videos\\BVI-HD\\BVI-HD_CDVL_videos\\ORIG\\Rowing_1920x1080_30fps.mp4':\n  Metadata:\n    major_brand     : isom\n    minor_version   : 512\n    compatible_brands: isomiso2avc1mp41\n    encoder         : Lavf54.28.101\n  Duration: 00:00:05.00, start: 0.000000, bitrate: 259220 kb/s\n  Stream #0:0[0x1](und): Video: h264 (High 4:4:4 Predictive) (avc1 / 0x31637661), yuv420p(progressive), 1920x1080, 259216 kb/s, 30 fps, 30 tbr, 30 tbn (default)\n    Metadata:\n      handler_name    : VideoHandler\n      vendor_id       : [0][0][0][0]\n[out#0/mp4 @ 00000208fe23f200] Codec AVOption b:a (set bitrate (in bits/s)) has not been used for any stream. The most likely reason is either wrong type (e.g. a video option with no video streams) or that it is a private option of some decoder which was not actually used for any stream.\nStream mapping:\n  Stream #0:0 -> #0:0 (h264 (native) -> h264 (libx264))\nPress [q] to stop, [?] for help\n[libx264 @ 00000208fe040c00] using cpu capabilities: MMX2 SSE2Fast SSSE3 SSE4.2 AVX FMA3 BMI2 AVX2\n[libx264 @ 00000208fe040c00] profile High, level 5.0, 4:2:0, 8-bit\n[libx264 @ 00000208fe040c00] 264 - core 165 r3222 b35605a - H.264/MPEG-4 AVC codec - Copyleft 2003-2025 - http://www.videolan.org/x264.html - options: cabac=1 ref=5 deblock=1:0:0 analyse=0x3:0x113 me=hex subme=8 psy=1 psy_rd=1.00:0.00 mixed_ref=1 me_range=16 chroma_me=1 trellis=2 8x8dct=1 cqm=0 deadzone=21,11 fast_pskip=1 chroma_qp_offset=-2 threads=18 lookahead_threads=3 sliced_threads=0 nr=0 decimate=1 interlaced=0 bluray_compat=0 constrained_intra=0 bframes=3 b_pyramid=2 b_adapt=1 b_bias=0 direct=3 weightb=1 open_gop=0 weightp=2 keyint=250 keyint_min=25 scenecut=40 intra_refresh=0 rc_lookahead=50 rc=cbr mbtree=1 bitrate=2500 ratetol=1.0 qcomp=0.60 qpmin=0 qpmax=69 qpstep=4 vbv_maxrate=2500 vbv_bufsize=2500 nal_hrd=none filler=0 ip_ratio=1.40 aq=1:1.00\nOutput #0, mp4, to 'C:\\Users\\Peter\\Desktop\\stuff\\MIUN\\quantitative_research\\video_compression\\compressed_videos\\BVI-HD\\h264\\2.5\\Rowing_1920x1080_30fps_h264.mp4':\n  Metadata:\n    major_brand     : isom\n    minor_version   : 512\n    compatible_brands: isomiso2avc1mp41\n    encoder         : Lavf62.3.100\n  Stream #0:0(und): Video: h264 (avc1 / 0x31637661), yuv420p(tv, progressive), 1920x1080, q=2-31, 2500 kb/s, 30 fps, 15360 tbn (default)\n    Metadata:\n      encoder         : Lavc62.11.100 libx264\n      handler_name    : VideoHandler\n      vendor_id       : [0][0][0][0]\n    Side data:\n      cpb: bitrate max/min/avg: 2500000/0/2500000 buffer size: 2500000 vbv_delay: N/A\nframe=    0 fps=0.0 q=0.0 size=       0KiB time=N/A bitrate=N/A speed=N/A elapsed=0:00:00.50    \nframe=    0 fps=0.0 q=0.0 size=       0KiB time=N/A bitrate=N/A speed=N/A elapsed=0:00:01.07    \nframe=    0 fps=0.0 q=0.0 size=       0KiB time=N/A bitrate=N/A speed=N/A elapsed=0:00:01.66    \nframe=    0 fps=0.0 q=0.0 size=       0KiB time=N/A bitrate=N/A speed=N/A elapsed=0:00:02.22    \nframe=    0 fps=0.0 q=0.0 size=       0KiB time=N/A bitrate=N/A speed=N/A elapsed=0:00:02.74    \nframe=    4 fps=1.2 q=47.0 size=       0KiB time=00:00:00.03 bitrate=  11.5kbits/s speed=0.0102x elapsed=0:00:03.26    \nframe=   14 fps=3.7 q=46.0 size=       0KiB time=00:00:00.36 bitrate=   1.0kbits/s speed=0.0964x elapsed=0:00:03.80    \nframe=   23 fps=5.3 q=46.0 size=       0KiB time=00:00:00.70 bitrate=   0.5kbits/s speed=0.16x elapsed=0:00:04.37    \nframe=   33 fps=6.6 q=46.0 size=       0KiB time=00:00:01.00 bitrate=   0.4kbits/s speed=0.201x elapsed=0:00:04.96    \nframe=   44 fps=7.9 q=46.0 size=     256KiB time=00:00:01.36 bitrate=1534.8kbits/s speed=0.245x elapsed=0:00:05.56    \nframe=   54 fps=8.8 q=45.0 size=     256KiB time=00:00:01.73 bitrate=1210.1kbits/s speed=0.282x elapsed=0:00:06.13    \nframe=   67 fps= 10 q=45.0 size=     512KiB time=00:00:02.16 bitrate=1936.0kbits/s speed=0.325x elapsed=0:00:06.66    \nframe=   80 fps= 11 q=45.0 size=     512KiB time=00:00:02.60 bitrate=1613.3kbits/s speed=0.361x elapsed=0:00:07.19    \nframe=  103 fps= 13 q=45.0 size=     768KiB time=00:00:03.36 bitrate=1868.9kbits/s speed=0.436x elapsed=0:00:07.72    \nframe=  129 fps= 16 q=42.0 size=    1024KiB time=00:00:04.10 bitrate=2046.1kbits/s speed=0.495x elapsed=0:00:08.28    \nframe=  148 fps= 17 q=-1.0 size=    1024KiB time=00:00:04.86 bitrate=1723.8kbits/s speed=0.548x elapsed=0:00:08.87    \n[mp4 @ 00000208fd529a40] Starting second pass: moving the moov atom to the beginning of the file\n[out#0/mp4 @ 00000208fe23f200] video:1298KiB audio:0KiB subtitle:0KiB other streams:0KiB global headers:0KiB muxing overhead: 0.111598%\nframe=  150 fps= 17 q=-1.0 Lsize=    1299KiB time=00:00:04.93 bitrate=2157.3kbits/s speed=0.554x elapsed=0:00:08.90    \n[libx264 @ 00000208fe040c00] frame I:1     Avg QP:44.08  size: 12357\n[libx264 @ 00000208fe040c00] frame P:149   Avg QP:44.99  size:  8831\n[libx264 @ 00000208fe040c00] mb I  I16..4: 35.7% 63.1%  1.2%\n[libx264 @ 00000208fe040c00] mb P  I16..4: 15.0%  8.8%  0.2%  P16..4: 25.5%  1.2%  1.7%  0.0%  0.0%    skip:47.6%\n[libx264 @ 00000208fe040c00] 8x8 transform intra:37.5% inter:94.9%\n[libx264 @ 00000208fe040c00] coded y,uvDC,uvAC intra: 8.7% 12.0% 0.1% inter: 4.2% 6.6% 0.0%\n[libx264 @ 00000208fe040c00] i16 v,h,dc,p: 34% 36%  7% 22%\n[libx264 @ 00000208fe040c00] i8 v,h,dc,ddl,ddr,vr,hd,vl,hu:  2%  3% 42%  4% 17%  7% 15%  3%  8%\n[libx264 @ 00000208fe040c00] i4 v,h,dc,ddl,ddr,vr,hd,vl,hu:  1%  2% 17%  6% 27%  9% 16%  6% 16%\n[libx264 @ 00000208fe040c00] i8c dc,h,v,p: 96%  3%  0%  0%\n[libx264 @ 00000208fe040c00] Weighted P-Frames: Y:0.0% UV:0.0%\n[libx264 @ 00000208fe040c00] ref P L0: 41.2%  2.6% 22.3% 11.8% 10.9% 11.2%\n[libx264 @ 00000208fe040c00] kb/s:2124.98\n",
  "seconds": 9.203413724899292,
  "probe_out": {}
}